<svg xmlns="http://www.w3.org/2000/svg" width="186" height="40" fill="none"><path fill="#222222" d="M2 28.592h2.945v-17.35H2v17.35Zm11.418-12.635c-3.844 0-6.363 2.527-6.363 6.439 0 3.91 2.437 6.438 6.281 6.438 3.24 0 5.579-1.739 6.151-4.604h-2.879c-.343 1.481-1.472 2.463-3.14 2.463-2.21 0-3.305-1.867-3.534-3.943h9.815v-.354c0-3.928-2.47-6.439-6.347-6.439h.016ZM9.967 20.98c.294-1.915 1.505-2.994 3.337-2.994 1.832 0 3.01 1.063 3.386 2.994H9.967ZM37.3 15.957c-2.273 0-3.86 1.304-4.253 3.477H33c-.36-2.189-1.832-3.477-4.024-3.477s-3.828 1.304-4.155 3.46h-.05l-.13-3.218h-2.797v12.393h2.944v-7.098c0-2.044 1.195-3.235 2.912-3.235 1.62 0 2.568 1.143 2.568 3.123v7.21h2.945v-7.13c0-2.044 1.194-3.22 2.879-3.22s2.585 1.144 2.585 3.123v7.211h2.944v-7.983c0-2.913-1.603-4.668-4.27-4.668h-.016l-.033.032Zm12.727 0c-3.893 0-6.461 2.56-6.461 6.439s2.568 6.438 6.461 6.438c3.894 0 6.462-2.56 6.462-6.438 0-3.88-2.585-6.439-6.462-6.439Zm.164 10.752c-2.536 0-3.68-2.318-3.68-4.651 0-2.511 1.275-3.96 3.353-3.96 2.568 0 3.68 2.366 3.68 4.668 0 2.479-1.276 3.943-3.353 3.943ZM66.01 15.957c-2.356 0-4.057 1.336-4.466 3.574h-.05l-.13-3.332h-2.797v12.393h2.944v-6.744c0-2.285 1.325-3.589 3.239-3.589s2.863 1.272 2.863 3.493v6.84h2.944v-7.629c0-3.139-1.717-5.022-4.515-5.022h-.016l-.016.016Zm18.648 4.491c0-2.704-2.225-4.49-5.709-4.49-3.484 0-5.676 1.625-6.053 4.136h2.945c.31-1.336 1.489-2.14 3.14-2.14 1.767 0 2.864.852 2.864 1.915 0 1.545-2.225 1.046-4.336 1.239-3.386.225-4.989 1.561-4.989 3.879s1.685 3.847 4.204 3.847c2.52 0 4.679-1.706 5.088-4.25h.049c.065 2.109.196 3.348.49 4.008h2.83v-.032c-.326-.82-.507-2.092-.507-4.136v-3.976h-.016Zm-2.83 1.658c0 2.865-1.881 4.394-4.09 4.394-1.406 0-2.322-.692-2.322-1.851s1.194-1.626 2.568-1.77c1.734-.178 3.239-.033 3.795-.998h.05v.225Zm5.513 6.486h2.945V16.2h-2.945v12.393Zm15.099-8.997h-.049c-.442-2.237-2.274-3.638-4.679-3.638-3.206 0-5.284 2.48-5.284 6.455s2.078 6.438 5.268 6.438c2.421 0 4.253-1.417 4.695-3.638h.049l.131 3.396h2.797v-17.35h-2.945v8.353l.017-.016Zm-3.337 7.082c-2.307 0-3.697-1.803-3.697-4.507 0-2.688 1.308-4.056 3.386-4.056 2.306 0 3.697 1.77 3.697 4.475 0 2.704-1.309 4.072-3.386 4.072v.016Zm21.953-10.72c-2.356 0-4.057 1.336-4.466 3.574h-.049v-8.29h-2.945v17.351h2.945v-6.744c0-2.285 1.325-3.589 3.239-3.589s2.862 1.272 2.862 3.493v6.84h2.945v-7.629c0-3.139-1.718-5.022-4.515-5.022l-.016.016Zm12.923 0c-3.844 0-6.364 2.527-6.364 6.439 0 3.91 2.438 6.438 6.282 6.438 3.239 0 5.578-1.739 6.151-4.604h-2.879c-.344 1.481-1.473 2.463-3.141 2.463-2.208 0-3.304-1.867-3.533-3.943h9.815v-.354c0-3.928-2.471-6.439-6.348-6.439h.017Zm-3.452 5.022c.295-1.915 1.505-2.994 3.337-2.994 1.832 0 3.01 1.063 3.387 2.994h-6.724Zm23.147-.531c0-2.704-2.224-4.49-5.709-4.49-3.484 0-5.676 1.625-6.052 4.136h2.944c.311-1.336 1.489-2.14 3.141-2.14 1.767 0 2.863.852 2.863 1.915 0 1.545-2.225 1.046-4.335 1.239-3.386.225-4.99 1.561-4.99 3.879s1.685 3.847 4.205 3.847c2.519 0 4.678-1.706 5.087-4.25h.049c.066 2.109.196 3.348.491 4.008h2.83v-.032c-.327-.82-.507-2.092-.507-4.136v-3.976h-.017Zm-2.813 1.658c0 2.865-1.881 4.394-4.09 4.394-1.407 0-2.323-.692-2.323-1.851s1.194-1.626 2.569-1.77c1.734-.178 3.238-.033 3.795-.998h.049v.225Zm5.496 6.486h2.945v-17.35h-2.945v17.35Zm14.199-10.3v-2.093h-3.909v-3.22l-2.879-.16v3.38h-3.01v2.092h3.01v5.81c0 3.172 1.537 4.749 4.514 4.749.884 0 1.702-.145 2.258-.402V26.21c-.376.258-.932.403-1.538.403-1.587 0-2.372-.902-2.372-2.833V18.29h3.926Zm9.472-2.335c-2.356 0-4.057 1.336-4.466 3.574h-.049v-8.29h-2.945v17.351h2.945v-6.744c0-2.285 1.325-3.589 3.239-3.589s2.863 1.272 2.863 3.493v6.84h2.944v-7.629c0-3.139-1.718-5.022-4.515-5.022l-.016.016ZM88.814 11c-.949 0-1.717.757-1.717 1.69 0 .934.768 1.69 1.717 1.69.949 0 1.718-.756 1.718-1.69 0-.933-.769-1.69-1.718-1.69Z"/></svg>